HIERARCHY
ROOT hip
{
	OFFSET 0.000000 0.000000 0.000000 
	CHANNELS 6 Xposition Yposition Zposition Xrotation Zrotation Yrotation
	JOINT abdomen
	{
		OFFSET 0.000000 3.402643 0.000000 
		CHANNELS 3 Xrotation Zrotation Yrotation
		JOINT chest
		{
			OFFSET 0.000000 8.438565 -0.680529 
			CHANNELS 3 Xrotation Zrotation Yrotation
			JOINT neck
			{
				OFFSET 0.000000 10.207942 -0.272212 
				CHANNELS 3 Xrotation Zrotation Yrotation
				JOINT head
				{
					OFFSET 0.000000 3.130431 0.000000 
					CHANNELS 3 Xrotation Zrotation Yrotation
					End Site
					{
						OFFSET 0.000000 3.130435 0.000000 
					}
				}
			}
			JOINT lCollar
			{
				OFFSET 3.470700 6.669187 -0.816635 
				CHANNELS 3 Yrotation Zrotation Xrotation
				JOINT lShldr
				{
					OFFSET 3.198488 0.000000 0.000000 
					CHANNELS 3 Zrotation Yrotation Xrotation
					JOINT lForeArm
					{
						OFFSET 10.139888 0.000000 0.000000 
						CHANNELS 3 Yrotation Zrotation Xrotation
						JOINT lHand
						{
							OFFSET 8.370511 0.000000 0.000000 
							CHANNELS 3 Zrotation Yrotation Xrotation
							End Site
							{
								OFFSET 4.083176 0.000000 0.000000 
							}
						}
					}
				}
			}
			JOINT rCollar
			{
				OFFSET -3.470700 6.669187 -0.816635 
				CHANNELS 3 Yrotation Zrotation Xrotation
				JOINT rShldr
				{
					OFFSET -3.198488 0.000000 0.000000 
					CHANNELS 3 Zrotation Yrotation Xrotation
					JOINT rForeArm
					{
						OFFSET -10.139888 0.000000 0.000000 
						CHANNELS 3 Yrotation Zrotation Xrotation
						JOINT rHand
						{
							OFFSET -8.370511 0.000000 0.000000 
							CHANNELS 3 Zrotation Yrotation Xrotation
							End Site
							{
								OFFSET -4.083176 0.000000 0.000000 
							}
						}
					}
				}
			}
		}
	}
	JOINT lThigh
	{
		OFFSET 5.308129 -1.633274 1.361059 
		CHANNELS 3 Xrotation Zrotation Yrotation
		JOINT lShin
		{
			OFFSET -2.041588 -20.007561 0.000000 
			CHANNELS 3 Xrotation Zrotation Yrotation
			JOINT lFoot
			{
				OFFSET 0.000000 -19.190928 -1.224953 
				CHANNELS 3 Xrotation Yrotation Zrotation
				End Site
				{
					OFFSET 0.000000 -2.449906 4.627600 
				}
			}
		}
	}
	JOINT rThigh
	{
		OFFSET -5.308129 -1.633274 1.361059 
		CHANNELS 3 Xrotation Zrotation Yrotation
		JOINT rShin
		{
			OFFSET 2.041588 -20.007561 0.000000 
			CHANNELS 3 Xrotation Zrotation Yrotation
			JOINT rFoot
			{
				OFFSET 0.000000 -19.190928 -1.224953 
				CHANNELS 3 Xrotation Yrotation Zrotation
				End Site
				{
					OFFSET 0.000000 -2.449906 4.627600 
				}
			}
		}
	}
}
MOTION
Frames: 8
Frame Time: 0.011111
0.286479 50.046310 -113.056358 4.686138 1.918987 2.528521 40.731232 -3.890699 -7.651161 -28.504824 0.909843 -1.415401 -9.094754 -1.008624 0.008019 -16.680803 5.574087 -1.043563 8.861669 -1.932660 3.351237 -72.230827 -56.573627 56.997314 -92.006340 7.143517 36.346088 8.524705 12.647240 -17.962294 -6.806992 -0.756156 2.905732 69.300537 6.225393 40.651123 85.574043 -2.191382 27.454763 -8.534408 -12.637552 45.326031 -0.864848 -1.477458 0.167144 41.016541 -4.579849 -6.239224 -22.882206 -5.087383 -4.642104 -32.985626 -11.903391 -3.141146 106.810211 -3.651387 9.646065 5.834820 -8.204074 3.567867 
0.301458 50.299091 -111.370880 4.682587 1.738429 3.297583 40.122116 -3.020631 -8.505061 -27.235100 1.176906 -1.770843 -9.328223 -0.630902 -0.038606 -16.768955 4.707263 -0.914333 8.861669 -1.932660 3.351237 -72.864182 -58.079025 56.972118 -92.541077 7.446428 36.646729 8.524705 12.647240 -17.356825 -6.806992 -0.756156 2.905732 69.123924 6.112153 40.275715 85.626869 -2.112029 27.559492 -8.534408 -12.637552 45.052589 1.792938 -1.218040 -0.645875 39.067432 -4.752172 -5.992080 -21.280401 -3.933665 -4.144928 -34.524460 -11.755489 -3.564950 104.814178 -3.349576 9.706023 4.824629 -7.518296 3.428101 
0.305827 50.574329 -109.681969 4.652876 1.508095 3.258201 39.329998 -2.249841 -9.241943 -25.789345 1.303530 -2.073457 -9.071829 -0.530852 0.336643 -18.081924 4.379514 -0.149647 8.861669 -1.932660 3.351237 -73.099052 -59.359554 56.131760 -92.998795 7.691916 36.896759 8.524705 12.647240 -16.692762 -6.806992 -0.756156 2.905732 68.786057 6.442750 40.474030 85.633118 -2.104368 27.569706 -8.534408 -12.637552 44.798687 4.451719 -0.800779 -0.912903 37.069279 -4.873132 -5.748890 -18.470091 -4.169900 -4.221968 -36.081528 -10.868488 -3.180064 102.468208 -3.026918 9.754233 3.387318 -6.979512 3.298584 
0.303642 50.853634 -107.956223 4.654643 1.485333 2.815445 39.030380 -2.137502 -9.547010 -26.151686 1.700010 -2.196686 -8.835199 -0.389500 0.617295 -18.229509 3.787429 0.542270 8.861669 -1.932660 3.351237 -73.312218 -59.087925 55.880844 -93.483864 7.935602 37.168846 8.524705 12.647240 -16.145885 -6.806992 -0.756156 2.905732 68.418365 5.168924 40.111084 85.659958 -2.064671 27.622026 -8.534408 -12.637552 44.447124 7.169085 -0.585307 -1.132464 34.953678 -5.038776 -5.486989 -15.555310 -4.017705 -4.145629 -37.507992 -9.950883 -2.330019 99.872498 -2.646571 9.755511 1.443375 -6.549359 3.150869 
0.318622 51.172569 -106.178688 4.930024 1.676704 2.379483 38.387390 -2.444551 -9.720538 -24.559887 1.659754 -2.179276 -11.275006 0.463804 0.682138 -17.212358 3.171631 1.024414 8.861669 -1.932660 3.351237 -73.560806 -60.837982 56.240784 -93.876869 8.124450 37.378838 8.524705 12.647240 -15.472060 -6.806992 -0.756156 2.905732 69.309715 5.852362 39.000668 85.644890 -2.089442 27.600626 -8.534408 -12.637552 43.929546 9.637944 -0.644625 -1.433106 32.717663 -5.167258 -5.208790 -12.117175 -3.726185 -3.962330 -39.113846 -9.451542 -1.518172 96.945885 -2.215647 9.789738 0.056549 -6.103993 3.045881 
0.350140 51.478085 -104.393967 5.135827 1.751989 2.216511 37.129398 -1.911040 -10.733053 -27.065626 2.938701 -2.653947 -7.219292 -1.145906 1.458104 -17.788960 3.560777 2.132519 8.861669 -1.932660 3.351237 -73.807785 -56.933659 55.167862 -94.572632 8.441854 37.729462 8.524705 12.647240 -15.140028 -6.806992 -0.756156 2.905732 66.782387 1.946506 39.973476 85.703384 -2.002367 27.725248 -8.534408 -12.637552 43.812359 11.952937 -0.498361 -1.928079 30.323629 -5.313333 -4.898290 -7.813795 -3.261475 -3.696145 -40.319836 -9.013519 -1.018180 93.748421 -1.757641 9.780271 -0.127716 -6.114113 3.044393 
0.376978 51.768925 -102.599892 5.194526 1.554319 1.994619 36.974846 -1.560735 -10.575419 -26.888826 2.818432 -2.648438 -9.112766 -0.610665 1.378811 -15.658663 2.985022 2.203718 8.861669 -1.932660 3.351237 -73.883904 -57.453091 55.739994 -94.906418 8.584271 37.909103 8.524705 12.647240 -14.202529 -6.806992 -0.756156 2.905732 67.444832 1.278064 38.721340 85.728027 -1.961810 27.777275 -8.534408 -12.637552 43.617046 14.415765 -0.078494 -2.378993 27.511021 -5.459344 -4.536111 -2.861620 -2.227990 -3.313012 -41.000301 -8.192637 -0.647539 90.193810 -1.240193 9.706474 -0.723039 -5.769011 2.973960 
0.418795 52.045734 -100.801132 5.166658 1.549718 1.405257 36.616516 -1.479162 -10.462667 -26.252071 2.544611 -2.601961 -10.361492 0.052530 1.323125 -14.828794 2.445114 2.333817 8.861669 -1.932660 3.351237 -73.643677 -57.936832 55.876846 -95.241425 8.722694 38.079624 8.524705 12.647240 -13.470105 -6.806992 -0.756156 2.905732 68.105316 0.971513 37.828346 85.748962 -1.930269 27.828722 -8.534408 -12.637552 43.617046 17.169174 0.048361 -2.877671 24.410391 -5.606074 -4.123423 2.536734 -0.171652 -2.991863 -41.467339 -7.401240 0.088345 86.375633 -0.693323 9.630206 -1.867403 -5.545135 2.911466 
